<svg width="302" height="263" viewBox="0 0 302 263" fill="none" xmlns="http://www.w3.org/2000/svg">
<line x1="85.4284" y1="208.695" x2="28.5567" y2="175.86" stroke="black"/>
<line x1="28.9358" y1="110.429" x2="28.9358" y2="176.098" stroke="black"/>
<line x1="28.6858" y1="109.996" x2="85.5575" y2="142.83" stroke="black"/>
<line x1="85.1784" y1="208.262" x2="85.1784" y2="142.592" stroke="black"/>
<line x1="155.75" y1="107.059" x2="212.622" y2="74.2237" stroke="black"/>
<line x1="269.098" y1="107.268" x2="212.226" y2="74.433" stroke="black"/>
<line x1="269.598" y1="107.268" x2="212.726" y2="140.103" stroke="black"/>
<line x1="156.25" y1="107.059" x2="213.122" y2="139.893" stroke="black"/>
<line x1="216.026" y1="209.922" x2="216.026" y2="144.252" stroke="black"/>
<line x1="272.881" y1="111.865" x2="216.009" y2="144.7" stroke="black"/>
<line x1="273.131" y1="111.432" x2="273.131" y2="177.102" stroke="black"/>
<line x1="216.276" y1="209.489" x2="273.148" y2="176.654" stroke="black"/>
<line x1="92.2715" y1="143.059" x2="149.143" y2="110.224" stroke="black"/>
<line x1="205.619" y1="143.268" x2="148.747" y2="110.433" stroke="black"/>
<line x1="206.119" y1="143.268" x2="149.247" y2="176.103" stroke="black"/>
<line x1="92.7715" y1="143.059" x2="149.643" y2="175.893" stroke="black"/>
<line x1="146.428" y1="245.37" x2="89.5567" y2="212.535" stroke="black"/>
<line x1="89.9358" y1="147.103" x2="89.9358" y2="212.773" stroke="black"/>
<line x1="89.6858" y1="146.67" x2="146.557" y2="179.505" stroke="black"/>
<line x1="146.178" y1="244.937" x2="146.178" y2="179.267" stroke="black"/>
<line x1="152.548" y1="245.922" x2="152.548" y2="180.252" stroke="black"/>
<line x1="209.403" y1="147.865" x2="152.531" y2="180.7" stroke="black"/>
<line x1="209.653" y1="147.432" x2="209.653" y2="213.102" stroke="black"/>
<line x1="152.798" y1="245.489" x2="209.669" y2="212.654" stroke="black"/>
<line x1="31.2715" y1="34.0586" x2="88.1432" y2="1.22368" stroke="black"/>
<line x1="144.619" y1="34.2679" x2="87.7474" y2="1.43296" stroke="black"/>
<line x1="145.119" y1="34.2679" x2="88.2474" y2="67.1027" stroke="black"/>
<line x1="31.7715" y1="34.0586" x2="88.6432" y2="66.8935" stroke="black"/>
<line x1="85.4284" y1="136.37" x2="28.5567" y2="103.535" stroke="black"/>
<line x1="28.9358" y1="38.1034" x2="28.9358" y2="103.773" stroke="black"/>
<line x1="28.6858" y1="37.6704" x2="85.5575" y2="70.5053" stroke="black"/>
<line x1="85.1784" y1="135.937" x2="85.1784" y2="70.2672" stroke="black"/>
<line x1="91.5475" y1="136.922" x2="91.5475" y2="71.2523" stroke="black"/>
<line x1="148.403" y1="38.8648" x2="91.531" y2="71.6997" stroke="black"/>
<line x1="148.653" y1="38.4318" x2="148.653" y2="104.102" stroke="black"/>
<line x1="91.7975" y1="136.489" x2="148.669" y2="103.654" stroke="black"/>
</svg>
