<svg width="300" height="336" viewBox="0 0 300 336" fill="none" xmlns="http://www.w3.org/2000/svg">
<line x1="241.182" y1="213.847" x2="221.816" y2="261.779" stroke="black"/>
<line x1="170.653" y1="268.508" x2="221.846" y2="261.313" stroke="black"/>
<line x1="170.259" y1="268.815" x2="189.625" y2="220.883" stroke="black"/>
<line x1="240.788" y1="214.155" x2="189.594" y2="221.35" stroke="black"/>
<line x1="122.982" y1="130.182" x2="174.175" y2="122.987" stroke="black"/>
<line x1="205.583" y1="163.932" x2="173.756" y2="123.194" stroke="black"/>
<line x1="206.047" y1="164.119" x2="154.853" y2="171.314" stroke="black"/>
<line x1="123.445" y1="130.369" x2="155.273" y2="171.107" stroke="black"/>
<line x1="61.1468" y1="139.989" x2="92.9743" y2="180.726" stroke="black"/>
<line x1="73.2194" y1="228.398" x2="92.5853" y2="180.466" stroke="black"/>
<line x1="73.289" y1="228.893" x2="41.4614" y2="188.156" stroke="black"/>
<line x1="61.2163" y1="140.484" x2="41.8505" y2="188.416" stroke="black"/>
<line x1="185.331" y1="221.95" x2="165.965" y2="269.883" stroke="black"/>
<line x1="114.802" y1="276.611" x2="165.995" y2="269.416" stroke="black"/>
<line x1="114.408" y1="276.918" x2="133.774" y2="228.986" stroke="black"/>
<line x1="184.937" y1="222.258" x2="133.743" y2="229.453" stroke="black"/>
<line x1="98.0706" y1="187.249" x2="129.898" y2="227.987" stroke="black"/>
<line x1="110.143" y1="275.659" x2="129.509" y2="227.726" stroke="black"/>
<line x1="110.213" y1="276.154" x2="78.3853" y2="235.416" stroke="black"/>
<line x1="98.1402" y1="187.744" x2="78.7743" y2="235.676" stroke="black"/>
<line x1="263.097" y1="159.135" x2="243.731" y2="207.067" stroke="black"/>
<line x1="192.568" y1="213.795" x2="243.762" y2="206.6" stroke="black"/>
<line x1="192.174" y1="214.103" x2="211.54" y2="166.171" stroke="black"/>
<line x1="262.703" y1="159.442" x2="211.51" y2="166.637" stroke="black"/>
<line x1="179.802" y1="121.769" x2="230.995" y2="114.574" stroke="black"/>
<line x1="262.403" y1="155.519" x2="230.576" y2="114.781" stroke="black"/>
<line x1="262.867" y1="155.706" x2="211.673" y2="162.901" stroke="black"/>
<line x1="180.265" y1="121.956" x2="212.093" y2="162.694" stroke="black"/>
<line x1="144.897" y1="75.4692" x2="196.091" y2="68.2744" stroke="black"/>
<line x1="227.499" y1="109.219" x2="195.671" y2="68.4815" stroke="black"/>
<line x1="227.962" y1="109.406" x2="176.769" y2="116.601" stroke="black"/>
<line x1="145.361" y1="75.6565" x2="177.188" y2="116.394" stroke="black"/>
<line x1="87.0268" y1="82.612" x2="138.22" y2="75.4173" stroke="black"/>
<line x1="169.628" y1="116.362" x2="137.801" y2="75.6243" stroke="black"/>
<line x1="170.092" y1="116.549" x2="118.899" y2="123.744" stroke="black"/>
<line x1="87.4904" y1="82.7993" x2="119.318" y2="123.537" stroke="black"/>
<line x1="83.0623" y1="85.2757" x2="114.89" y2="126.013" stroke="black"/>
<line x1="95.1349" y1="173.685" x2="114.501" y2="125.753" stroke="black"/>
<line x1="95.2045" y1="174.18" x2="63.3769" y2="133.443" stroke="black"/>
<line x1="83.1319" y1="85.7708" x2="63.766" y2="133.703" stroke="black"/>
<line x1="207.246" y1="167.238" x2="187.88" y2="215.17" stroke="black"/>
<line x1="136.717" y1="221.898" x2="187.911" y2="214.703" stroke="black"/>
<line x1="136.323" y1="222.206" x2="155.689" y2="174.273" stroke="black"/>
<line x1="206.852" y1="167.545" x2="155.659" y2="174.74" stroke="black"/>
<line x1="119.986" y1="132.536" x2="151.814" y2="173.274" stroke="black"/>
<line x1="132.059" y1="220.946" x2="151.425" y2="173.014" stroke="black"/>
<line x1="132.128" y1="221.441" x2="100.301" y2="180.703" stroke="black"/>
<line x1="120.056" y1="133.031" x2="100.69" y2="180.964" stroke="black"/>
</svg>
