<svg width="305" height="265" viewBox="0 0 305 265" fill="none" xmlns="http://www.w3.org/2000/svg">
<line x1="92.3444" y1="34.0586" x2="149.216" y2="1.22368" stroke="black"/>
<line x1="205.692" y1="34.2679" x2="148.82" y2="1.43297" stroke="black"/>
<line x1="206.192" y1="34.2679" x2="149.32" y2="67.1027" stroke="black"/>
<line x1="92.8444" y1="34.0586" x2="149.716" y2="66.8935" stroke="black"/>
<line x1="146.501" y1="136.37" x2="89.6296" y2="103.535" stroke="black"/>
<line x1="90.0087" y1="38.1034" x2="90.0087" y2="103.773" stroke="black"/>
<line x1="89.7587" y1="37.6704" x2="146.63" y2="70.5053" stroke="black"/>
<line x1="146.251" y1="135.937" x2="146.251" y2="70.2673" stroke="black"/>
<line x1="152.62" y1="136.922" x2="152.62" y2="71.2523" stroke="black"/>
<line x1="209.476" y1="38.8648" x2="152.604" y2="71.6997" stroke="black"/>
<line x1="209.726" y1="38.4318" x2="209.726" y2="104.102" stroke="black"/>
<line x1="152.87" y1="136.489" x2="209.742" y2="103.654" stroke="black"/>
<line x1="31.2715" y1="144.384" x2="88.1432" y2="111.549" stroke="black"/>
<line x1="144.619" y1="144.593" x2="87.7474" y2="111.758" stroke="black"/>
<line x1="145.119" y1="144.593" x2="88.2474" y2="177.428" stroke="black"/>
<line x1="31.7715" y1="144.384" x2="88.6432" y2="177.219" stroke="black"/>
<line x1="85.4284" y1="246.695" x2="28.5567" y2="213.86" stroke="black"/>
<line x1="28.9359" y1="148.429" x2="28.9359" y2="214.098" stroke="black"/>
<line x1="28.6859" y1="147.996" x2="85.5575" y2="180.83" stroke="black"/>
<line x1="85.1784" y1="246.262" x2="85.1784" y2="180.592" stroke="black"/>
<line x1="91.5475" y1="247.247" x2="91.5475" y2="181.577" stroke="black"/>
<line x1="148.403" y1="149.19" x2="91.531" y2="182.025" stroke="black"/>
<line x1="148.653" y1="148.757" x2="148.653" y2="214.427" stroke="black"/>
<line x1="91.7975" y1="246.814" x2="148.669" y2="213.979" stroke="black"/>
<line x1="158.984" y1="145.697" x2="215.856" y2="112.862" stroke="black"/>
<line x1="272.332" y1="145.906" x2="215.46" y2="113.072" stroke="black"/>
<line x1="272.832" y1="145.906" x2="215.96" y2="178.741" stroke="black"/>
<line x1="159.484" y1="145.697" x2="216.356" y2="178.532" stroke="black"/>
<line x1="213.141" y1="248.009" x2="156.269" y2="215.174" stroke="black"/>
<line x1="156.649" y1="149.742" x2="156.649" y2="215.412" stroke="black"/>
<line x1="156.399" y1="149.309" x2="213.27" y2="182.144" stroke="black"/>
<line x1="212.891" y1="247.576" x2="212.891" y2="181.906" stroke="black"/>
<line x1="219.26" y1="248.561" x2="219.26" y2="182.891" stroke="black"/>
<line x1="276.115" y1="150.503" x2="219.244" y2="183.338" stroke="black"/>
<line x1="276.365" y1="150.07" x2="276.365" y2="215.74" stroke="black"/>
<line x1="219.51" y1="248.128" x2="276.382" y2="215.293" stroke="black"/>
</svg>
