<svg width="62" height="62" viewBox="0 0 62 62" fill="none" xmlns="http://www.w3.org/2000/svg">
<circle cx="31" cy="31" r="31" fill="#FFD700"/>
<path d="M49.3771 33.2019C49.1966 33.1598 49.0091 33.1584 48.828 33.1978C48.6469 33.2372 48.4767 33.3164 48.3298 33.4298C47.1281 34.4566 45.7548 35.2618 44.2734 35.808C42.8035 36.3658 41.2432 36.6449 39.6718 36.6312C37.912 36.6324 36.1692 36.2856 34.5429 35.6107C32.9166 34.9359 31.4387 33.9461 30.1935 32.698C28.9499 31.4483 27.9638 29.965 27.2914 28.3327C26.6189 26.7005 26.2735 24.9514 26.2746 23.1851C26.2746 21.6301 26.548 20.1217 27.0037 18.7497C27.4849 17.3144 28.2265 15.981 29.191 14.8164C29.2872 14.6965 29.3589 14.5587 29.4018 14.4109C29.4448 14.2631 29.4582 14.1082 29.4412 13.9552C29.4243 13.8021 29.3773 13.654 29.3031 13.5192C29.2289 13.3845 29.1288 13.2658 29.0087 13.17C28.8618 13.0561 28.6914 12.9764 28.51 12.9368C28.3286 12.8971 28.1407 12.8983 27.9598 12.9405C24.0873 13.9932 20.7152 16.3249 18.2993 19.4348C15.9761 22.5016 14.5626 26.2951 14.5626 30.4578C14.5626 35.4421 16.5676 39.9707 19.8486 43.2636C21.5219 44.9484 23.5107 46.2844 25.7004 47.1949C27.8901 48.1054 30.2376 48.5723 32.6078 48.5689C36.8001 48.5689 40.6743 47.1053 43.773 44.6806C46.9662 42.1618 49.215 38.6315 50.1526 34.6654C50.3796 33.9786 50.015 33.3383 49.3771 33.2019ZM42.4059 42.7597C39.3952 45.1495 35.6138 46.3444 31.7819 46.1169C27.9501 45.8893 24.3355 44.2552 21.6266 41.5257C20.1684 40.0682 19.0111 38.3362 18.2212 36.429C17.4312 34.5217 17.0242 32.4767 17.0233 30.4112C17.0067 26.9517 18.1461 23.5865 20.2595 20.8535C21.6633 19.0213 23.4523 17.5222 25.4991 16.4629C25.2721 16.9652 25.0434 17.4691 24.8611 18.0179C24.2696 19.6644 23.9962 21.4023 23.9962 23.2317C23.9974 27.4162 25.6523 31.4294 28.5978 34.391C31.5486 37.3473 35.5472 39.0082 39.7165 39.0094C41.5674 39.0224 43.4052 38.6973 45.14 38.0498C45.7316 37.8203 46.3248 37.5925 46.87 37.3181C45.7857 39.4312 44.263 41.2868 42.4043 42.7597H42.4059Z" fill="black"/>
</svg>
