<svg width="1074" height="813" viewBox="0 0 1074 813" fill="none" xmlns="http://www.w3.org/2000/svg">
<line x1="286.344" y1="583.059" x2="343.216" y2="550.224" stroke="black"/>
<line x1="399.692" y1="583.268" x2="342.82" y2="550.433" stroke="black"/>
<line x1="400.192" y1="583.268" x2="343.32" y2="616.103" stroke="black"/>
<line x1="286.844" y1="583.059" x2="343.716" y2="615.894" stroke="black"/>
<line x1="340.501" y1="685.37" x2="283.63" y2="652.535" stroke="black"/>
<line x1="284.009" y1="587.104" x2="284.009" y2="652.773" stroke="black"/>
<line x1="283.759" y1="586.671" x2="340.63" y2="619.505" stroke="black"/>
<line x1="340.251" y1="684.937" x2="340.251" y2="619.267" stroke="black"/>
<line x1="346.62" y1="685.922" x2="346.62" y2="620.252" stroke="black"/>
<line x1="403.476" y1="587.865" x2="346.604" y2="620.7" stroke="black"/>
<line x1="403.726" y1="587.432" x2="403.726" y2="653.101" stroke="black"/>
<line x1="346.87" y1="685.489" x2="403.742" y2="652.654" stroke="black"/>
<line x1="225.271" y1="693.384" x2="282.143" y2="660.549" stroke="black"/>
<line x1="338.619" y1="693.593" x2="281.747" y2="660.758" stroke="black"/>
<line x1="339.119" y1="693.593" x2="282.247" y2="726.428" stroke="black"/>
<line x1="225.771" y1="693.384" x2="282.643" y2="726.219" stroke="black"/>
<line x1="279.428" y1="795.695" x2="222.557" y2="762.86" stroke="black"/>
<line x1="222.936" y1="697.429" x2="222.936" y2="763.098" stroke="black"/>
<line x1="222.686" y1="696.996" x2="279.557" y2="729.831" stroke="black"/>
<line x1="279.178" y1="795.262" x2="279.178" y2="729.592" stroke="black"/>
<line x1="285.547" y1="796.247" x2="285.547" y2="730.578" stroke="black"/>
<line x1="342.403" y1="698.19" x2="285.531" y2="731.025" stroke="black"/>
<line x1="342.653" y1="697.757" x2="342.653" y2="763.427" stroke="black"/>
<line x1="285.797" y1="795.814" x2="342.669" y2="762.979" stroke="black"/>
<line x1="92.3444" y1="473.059" x2="149.216" y2="440.224" stroke="black"/>
<line x1="205.692" y1="473.268" x2="148.82" y2="440.433" stroke="black"/>
<line x1="206.192" y1="473.268" x2="149.32" y2="506.103" stroke="black"/>
<line x1="92.8444" y1="473.059" x2="149.716" y2="505.894" stroke="black"/>
<line x1="146.501" y1="575.37" x2="89.6295" y2="542.535" stroke="black"/>
<line x1="90.0087" y1="477.104" x2="90.0087" y2="542.773" stroke="black"/>
<line x1="89.7587" y1="476.671" x2="146.63" y2="509.505" stroke="black"/>
<line x1="146.251" y1="574.937" x2="146.251" y2="509.267" stroke="black"/>
<line x1="152.62" y1="575.922" x2="152.62" y2="510.252" stroke="black"/>
<line x1="209.476" y1="477.865" x2="152.604" y2="510.7" stroke="black"/>
<line x1="209.726" y1="477.432" x2="209.726" y2="543.101" stroke="black"/>
<line x1="152.87" y1="575.489" x2="209.742" y2="542.654" stroke="black"/>
<line x1="31.2715" y1="583.384" x2="88.1432" y2="550.549" stroke="black"/>
<line x1="144.619" y1="583.593" x2="87.7474" y2="550.758" stroke="black"/>
<line x1="145.119" y1="583.593" x2="88.2474" y2="616.428" stroke="black"/>
<line x1="31.7715" y1="583.384" x2="88.6432" y2="616.219" stroke="black"/>
<line x1="85.4283" y1="685.695" x2="28.5567" y2="652.86" stroke="black"/>
<line x1="28.9358" y1="587.429" x2="28.9358" y2="653.098" stroke="black"/>
<line x1="28.6858" y1="586.996" x2="85.5575" y2="619.831" stroke="black"/>
<line x1="85.1783" y1="685.262" x2="85.1783" y2="619.592" stroke="black"/>
<line x1="91.5475" y1="686.247" x2="91.5475" y2="620.578" stroke="black"/>
<line x1="148.403" y1="588.19" x2="91.531" y2="621.025" stroke="black"/>
<line x1="148.653" y1="587.757" x2="148.653" y2="653.427" stroke="black"/>
<line x1="91.7975" y1="685.814" x2="148.669" y2="652.979" stroke="black"/>
<line x1="158.984" y1="584.697" x2="215.856" y2="551.862" stroke="black"/>
<line x1="272.332" y1="584.907" x2="215.46" y2="552.072" stroke="black"/>
<line x1="272.832" y1="584.907" x2="215.96" y2="617.742" stroke="black"/>
<line x1="159.484" y1="584.697" x2="216.356" y2="617.532" stroke="black"/>
<line x1="213.141" y1="687.009" x2="156.269" y2="654.174" stroke="black"/>
<line x1="156.649" y1="588.742" x2="156.649" y2="654.412" stroke="black"/>
<line x1="156.399" y1="588.309" x2="213.27" y2="621.144" stroke="black"/>
<line x1="212.891" y1="686.576" x2="212.891" y2="620.906" stroke="black"/>
<line x1="219.26" y1="687.561" x2="219.26" y2="621.891" stroke="black"/>
<line x1="276.115" y1="589.503" x2="219.244" y2="622.338" stroke="black"/>
<line x1="276.365" y1="589.07" x2="276.365" y2="654.74" stroke="black"/>
<line x1="219.51" y1="687.128" x2="276.382" y2="654.293" stroke="black"/>
<line x1="474.344" y1="476.059" x2="531.216" y2="443.224" stroke="black"/>
<line x1="587.692" y1="476.268" x2="530.82" y2="443.433" stroke="black"/>
<line x1="588.192" y1="476.268" x2="531.32" y2="509.103" stroke="black"/>
<line x1="474.844" y1="476.059" x2="531.716" y2="508.894" stroke="black"/>
<line x1="528.501" y1="578.37" x2="471.63" y2="545.535" stroke="black"/>
<line x1="472.009" y1="480.104" x2="472.009" y2="545.773" stroke="black"/>
<line x1="471.759" y1="479.671" x2="528.63" y2="512.505" stroke="black"/>
<line x1="528.251" y1="577.937" x2="528.251" y2="512.267" stroke="black"/>
<line x1="534.62" y1="578.922" x2="534.62" y2="513.252" stroke="black"/>
<line x1="591.476" y1="480.865" x2="534.604" y2="513.7" stroke="black"/>
<line x1="591.726" y1="480.432" x2="591.726" y2="546.101" stroke="black"/>
<line x1="534.87" y1="578.489" x2="591.742" y2="545.654" stroke="black"/>
<line x1="413.271" y1="586.384" x2="470.143" y2="553.549" stroke="black"/>
<line x1="526.619" y1="586.593" x2="469.747" y2="553.758" stroke="black"/>
<line x1="527.119" y1="586.593" x2="470.247" y2="619.428" stroke="black"/>
<line x1="413.771" y1="586.384" x2="470.643" y2="619.219" stroke="black"/>
<line x1="467.428" y1="688.695" x2="410.557" y2="655.86" stroke="black"/>
<line x1="410.936" y1="590.429" x2="410.936" y2="656.098" stroke="black"/>
<line x1="410.686" y1="589.996" x2="467.557" y2="622.831" stroke="black"/>
<line x1="467.178" y1="688.262" x2="467.178" y2="622.592" stroke="black"/>
<line x1="473.547" y1="689.247" x2="473.547" y2="623.578" stroke="black"/>
<line x1="530.403" y1="591.19" x2="473.531" y2="624.025" stroke="black"/>
<line x1="530.653" y1="590.757" x2="530.653" y2="656.427" stroke="black"/>
<line x1="473.797" y1="688.814" x2="530.669" y2="655.979" stroke="black"/>
<line x1="540.984" y1="587.697" x2="597.856" y2="554.862" stroke="black"/>
<line x1="654.332" y1="587.907" x2="597.46" y2="555.072" stroke="black"/>
<line x1="654.832" y1="587.907" x2="597.96" y2="620.742" stroke="black"/>
<line x1="541.484" y1="587.697" x2="598.356" y2="620.532" stroke="black"/>
<line x1="595.141" y1="690.009" x2="538.269" y2="657.174" stroke="black"/>
<line x1="538.649" y1="591.742" x2="538.649" y2="657.412" stroke="black"/>
<line x1="538.399" y1="591.309" x2="595.27" y2="624.144" stroke="black"/>
<line x1="594.891" y1="689.576" x2="594.891" y2="623.906" stroke="black"/>
<line x1="601.26" y1="690.561" x2="601.26" y2="624.891" stroke="black"/>
<line x1="658.115" y1="592.503" x2="601.244" y2="625.338" stroke="black"/>
<line x1="658.365" y1="592.07" x2="658.365" y2="657.74" stroke="black"/>
<line x1="601.51" y1="690.128" x2="658.382" y2="657.293" stroke="black"/>
<line x1="671.344" y1="583.059" x2="728.216" y2="550.224" stroke="black"/>
<line x1="784.692" y1="583.268" x2="727.82" y2="550.433" stroke="black"/>
<line x1="785.192" y1="583.268" x2="728.32" y2="616.103" stroke="black"/>
<line x1="671.844" y1="583.059" x2="728.716" y2="615.894" stroke="black"/>
<line x1="725.501" y1="685.37" x2="668.63" y2="652.535" stroke="black"/>
<line x1="669.009" y1="587.104" x2="669.009" y2="652.773" stroke="black"/>
<line x1="668.759" y1="586.671" x2="725.63" y2="619.505" stroke="black"/>
<line x1="725.251" y1="684.937" x2="725.251" y2="619.267" stroke="black"/>
<line x1="731.62" y1="685.922" x2="731.62" y2="620.252" stroke="black"/>
<line x1="788.476" y1="587.865" x2="731.604" y2="620.7" stroke="black"/>
<line x1="788.726" y1="587.432" x2="788.726" y2="653.101" stroke="black"/>
<line x1="731.87" y1="685.489" x2="788.742" y2="652.654" stroke="black"/>
<line x1="610.271" y1="693.384" x2="667.143" y2="660.549" stroke="black"/>
<line x1="723.619" y1="693.593" x2="666.747" y2="660.758" stroke="black"/>
<line x1="724.119" y1="693.593" x2="667.247" y2="726.428" stroke="black"/>
<line x1="610.771" y1="693.384" x2="667.643" y2="726.219" stroke="black"/>
<line x1="664.428" y1="795.695" x2="607.557" y2="762.86" stroke="black"/>
<line x1="607.936" y1="697.429" x2="607.936" y2="763.098" stroke="black"/>
<line x1="607.686" y1="696.996" x2="664.557" y2="729.831" stroke="black"/>
<line x1="664.178" y1="795.262" x2="664.178" y2="729.592" stroke="black"/>
<line x1="670.547" y1="796.247" x2="670.547" y2="730.578" stroke="black"/>
<line x1="727.403" y1="698.19" x2="670.531" y2="731.025" stroke="black"/>
<line x1="727.653" y1="697.757" x2="727.653" y2="763.427" stroke="black"/>
<line x1="670.797" y1="795.814" x2="727.669" y2="762.979" stroke="black"/>
<line x1="149.271" y1="150.059" x2="206.143" y2="117.224" stroke="black"/>
<line x1="262.619" y1="150.268" x2="205.747" y2="117.433" stroke="black"/>
<line x1="263.119" y1="150.268" x2="206.247" y2="183.103" stroke="black"/>
<line x1="149.771" y1="150.059" x2="206.643" y2="182.893" stroke="black"/>
<line x1="203.428" y1="252.37" x2="146.557" y2="219.535" stroke="black"/>
<line x1="146.936" y1="154.103" x2="146.936" y2="219.773" stroke="black"/>
<line x1="146.686" y1="153.67" x2="203.557" y2="186.505" stroke="black"/>
<line x1="203.178" y1="251.937" x2="203.178" y2="186.267" stroke="black"/>
<line x1="209.547" y1="252.922" x2="209.547" y2="187.252" stroke="black"/>
<line x1="266.403" y1="154.865" x2="209.531" y2="187.7" stroke="black"/>
<line x1="266.653" y1="154.432" x2="266.653" y2="220.102" stroke="black"/>
<line x1="209.797" y1="252.489" x2="266.669" y2="219.654" stroke="black"/>
<line x1="667.344" y1="362.059" x2="724.216" y2="329.224" stroke="black"/>
<line x1="780.692" y1="362.268" x2="723.82" y2="329.433" stroke="black"/>
<line x1="781.192" y1="362.268" x2="724.32" y2="395.103" stroke="black"/>
<line x1="667.844" y1="362.059" x2="724.716" y2="394.894" stroke="black"/>
<line x1="721.501" y1="464.37" x2="664.63" y2="431.535" stroke="black"/>
<line x1="665.009" y1="366.104" x2="665.009" y2="431.773" stroke="black"/>
<line x1="664.759" y1="365.671" x2="721.63" y2="398.505" stroke="black"/>
<line x1="721.251" y1="463.937" x2="721.251" y2="398.267" stroke="black"/>
<line x1="727.62" y1="464.922" x2="727.62" y2="399.252" stroke="black"/>
<line x1="784.476" y1="366.865" x2="727.604" y2="399.7" stroke="black"/>
<line x1="784.726" y1="366.432" x2="784.726" y2="432.101" stroke="black"/>
<line x1="727.87" y1="464.489" x2="784.742" y2="431.654" stroke="black"/>
<line x1="606.271" y1="472.384" x2="663.143" y2="439.549" stroke="black"/>
<line x1="719.619" y1="472.593" x2="662.747" y2="439.758" stroke="black"/>
<line x1="720.119" y1="472.593" x2="663.247" y2="505.428" stroke="black"/>
<line x1="606.771" y1="472.384" x2="663.643" y2="505.219" stroke="black"/>
<line x1="660.428" y1="574.695" x2="603.557" y2="541.86" stroke="black"/>
<line x1="603.936" y1="476.429" x2="603.936" y2="542.098" stroke="black"/>
<line x1="603.686" y1="475.996" x2="660.557" y2="508.831" stroke="black"/>
<line x1="660.178" y1="574.262" x2="660.178" y2="508.592" stroke="black"/>
<line x1="666.547" y1="575.247" x2="666.547" y2="509.578" stroke="black"/>
<line x1="723.403" y1="477.19" x2="666.531" y2="510.025" stroke="black"/>
<line x1="723.653" y1="476.757" x2="723.653" y2="542.427" stroke="black"/>
<line x1="666.797" y1="574.814" x2="723.669" y2="541.979" stroke="black"/>
<line x1="733.984" y1="473.697" x2="790.856" y2="440.862" stroke="black"/>
<line x1="847.332" y1="473.907" x2="790.46" y2="441.072" stroke="black"/>
<line x1="847.832" y1="473.907" x2="790.96" y2="506.742" stroke="black"/>
<line x1="734.484" y1="473.697" x2="791.356" y2="506.532" stroke="black"/>
<line x1="788.141" y1="576.009" x2="731.269" y2="543.174" stroke="black"/>
<line x1="731.649" y1="477.742" x2="731.649" y2="543.412" stroke="black"/>
<line x1="731.399" y1="477.309" x2="788.27" y2="510.144" stroke="black"/>
<line x1="787.891" y1="575.576" x2="787.891" y2="509.906" stroke="black"/>
<line x1="794.26" y1="576.561" x2="794.26" y2="510.891" stroke="black"/>
<line x1="851.115" y1="478.503" x2="794.244" y2="511.338" stroke="black"/>
<line x1="851.365" y1="478.07" x2="851.365" y2="543.74" stroke="black"/>
<line x1="794.51" y1="576.128" x2="851.382" y2="543.293" stroke="black"/>
<line x1="471.344" y1="255.059" x2="528.216" y2="222.224" stroke="black"/>
<line x1="584.692" y1="255.268" x2="527.82" y2="222.433" stroke="black"/>
<line x1="585.192" y1="255.268" x2="528.32" y2="288.103" stroke="black"/>
<line x1="471.844" y1="255.059" x2="528.716" y2="287.894" stroke="black"/>
<line x1="525.501" y1="357.37" x2="468.63" y2="324.535" stroke="black"/>
<line x1="469.009" y1="259.104" x2="469.009" y2="324.773" stroke="black"/>
<line x1="468.759" y1="258.671" x2="525.63" y2="291.505" stroke="black"/>
<line x1="525.251" y1="356.937" x2="525.251" y2="291.267" stroke="black"/>
<line x1="531.62" y1="357.922" x2="531.62" y2="292.252" stroke="black"/>
<line x1="588.476" y1="259.865" x2="531.604" y2="292.7" stroke="black"/>
<line x1="588.726" y1="259.432" x2="588.726" y2="325.101" stroke="black"/>
<line x1="531.87" y1="357.489" x2="588.742" y2="324.654" stroke="black"/>
<line x1="410.271" y1="365.384" x2="467.143" y2="332.549" stroke="black"/>
<line x1="523.619" y1="365.593" x2="466.747" y2="332.758" stroke="black"/>
<line x1="524.119" y1="365.593" x2="467.247" y2="398.428" stroke="black"/>
<line x1="410.771" y1="365.384" x2="467.643" y2="398.219" stroke="black"/>
<line x1="464.428" y1="467.695" x2="407.557" y2="434.86" stroke="black"/>
<line x1="407.936" y1="369.429" x2="407.936" y2="435.098" stroke="black"/>
<line x1="407.686" y1="368.996" x2="464.557" y2="401.831" stroke="black"/>
<line x1="464.178" y1="467.262" x2="464.178" y2="401.592" stroke="black"/>
<line x1="470.547" y1="468.247" x2="470.547" y2="402.578" stroke="black"/>
<line x1="527.403" y1="370.19" x2="470.531" y2="403.025" stroke="black"/>
<line x1="527.653" y1="369.757" x2="527.653" y2="435.427" stroke="black"/>
<line x1="470.797" y1="467.814" x2="527.669" y2="434.979" stroke="black"/>
<line x1="537.984" y1="366.697" x2="594.856" y2="333.862" stroke="black"/>
<line x1="651.332" y1="366.907" x2="594.46" y2="334.072" stroke="black"/>
<line x1="651.832" y1="366.907" x2="594.96" y2="399.742" stroke="black"/>
<line x1="538.484" y1="366.697" x2="595.356" y2="399.532" stroke="black"/>
<line x1="592.141" y1="469.009" x2="535.269" y2="436.174" stroke="black"/>
<line x1="535.649" y1="370.742" x2="535.649" y2="436.412" stroke="black"/>
<line x1="535.399" y1="370.309" x2="592.27" y2="403.144" stroke="black"/>
<line x1="591.891" y1="468.576" x2="591.891" y2="402.906" stroke="black"/>
<line x1="598.26" y1="469.561" x2="598.26" y2="403.891" stroke="black"/>
<line x1="655.115" y1="371.503" x2="598.244" y2="404.338" stroke="black"/>
<line x1="655.365" y1="371.07" x2="655.365" y2="436.74" stroke="black"/>
<line x1="598.51" y1="469.128" x2="655.382" y2="436.293" stroke="black"/>
<line x1="277.344" y1="145.059" x2="334.216" y2="112.224" stroke="black"/>
<line x1="390.692" y1="145.268" x2="333.82" y2="112.433" stroke="black"/>
<line x1="391.192" y1="145.268" x2="334.32" y2="178.103" stroke="black"/>
<line x1="277.844" y1="145.059" x2="334.716" y2="177.893" stroke="black"/>
<line x1="331.501" y1="247.37" x2="274.63" y2="214.535" stroke="black"/>
<line x1="275.009" y1="149.103" x2="275.009" y2="214.773" stroke="black"/>
<line x1="274.759" y1="148.67" x2="331.63" y2="181.505" stroke="black"/>
<line x1="331.251" y1="246.937" x2="331.251" y2="181.267" stroke="black"/>
<line x1="337.62" y1="247.922" x2="337.62" y2="182.252" stroke="black"/>
<line x1="394.476" y1="149.865" x2="337.604" y2="182.7" stroke="black"/>
<line x1="394.726" y1="149.432" x2="394.726" y2="215.102" stroke="black"/>
<line x1="337.87" y1="247.489" x2="394.742" y2="214.654" stroke="black"/>
<line x1="216.271" y1="255.384" x2="273.143" y2="222.549" stroke="black"/>
<line x1="329.619" y1="255.593" x2="272.747" y2="222.758" stroke="black"/>
<line x1="330.119" y1="255.593" x2="273.247" y2="288.428" stroke="black"/>
<line x1="216.771" y1="255.384" x2="273.643" y2="288.219" stroke="black"/>
<line x1="270.428" y1="357.695" x2="213.557" y2="324.86" stroke="black"/>
<line x1="213.936" y1="259.429" x2="213.936" y2="325.098" stroke="black"/>
<line x1="213.686" y1="258.996" x2="270.557" y2="291.831" stroke="black"/>
<line x1="270.178" y1="357.262" x2="270.178" y2="291.592" stroke="black"/>
<line x1="276.547" y1="358.247" x2="276.547" y2="292.578" stroke="black"/>
<line x1="333.403" y1="260.19" x2="276.531" y2="293.025" stroke="black"/>
<line x1="333.653" y1="259.757" x2="333.653" y2="325.427" stroke="black"/>
<line x1="276.797" y1="357.814" x2="333.669" y2="324.979" stroke="black"/>
<line x1="467.344" y1="34.0586" x2="524.216" y2="1.22368" stroke="black"/>
<line x1="580.692" y1="34.2679" x2="523.82" y2="1.43296" stroke="black"/>
<line x1="581.192" y1="34.2679" x2="524.32" y2="67.1027" stroke="black"/>
<line x1="467.844" y1="34.0586" x2="524.716" y2="66.8935" stroke="black"/>
<line x1="521.501" y1="136.37" x2="464.63" y2="103.535" stroke="black"/>
<line x1="465.009" y1="38.1034" x2="465.009" y2="103.773" stroke="black"/>
<line x1="464.759" y1="37.6704" x2="521.63" y2="70.5053" stroke="black"/>
<line x1="521.251" y1="135.937" x2="521.251" y2="70.2672" stroke="black"/>
<line x1="527.62" y1="136.922" x2="527.62" y2="71.2523" stroke="black"/>
<line x1="584.476" y1="38.8648" x2="527.604" y2="71.6997" stroke="black"/>
<line x1="584.726" y1="38.4318" x2="584.726" y2="104.102" stroke="black"/>
<line x1="527.87" y1="136.489" x2="584.742" y2="103.654" stroke="black"/>
<line x1="406.271" y1="144.384" x2="463.143" y2="111.549" stroke="black"/>
<line x1="519.619" y1="144.593" x2="462.747" y2="111.758" stroke="black"/>
<line x1="520.119" y1="144.593" x2="463.247" y2="177.428" stroke="black"/>
<line x1="406.771" y1="144.384" x2="463.643" y2="177.219" stroke="black"/>
<line x1="460.428" y1="246.695" x2="403.557" y2="213.86" stroke="black"/>
<line x1="403.936" y1="148.429" x2="403.936" y2="214.098" stroke="black"/>
<line x1="403.686" y1="147.996" x2="460.557" y2="180.83" stroke="black"/>
<line x1="460.178" y1="246.262" x2="460.178" y2="180.592" stroke="black"/>
<line x1="466.547" y1="247.247" x2="466.547" y2="181.578" stroke="black"/>
<line x1="523.403" y1="149.19" x2="466.531" y2="182.025" stroke="black"/>
<line x1="523.653" y1="148.757" x2="523.653" y2="214.427" stroke="black"/>
<line x1="466.797" y1="246.814" x2="523.669" y2="213.979" stroke="black"/>
<line x1="533.984" y1="145.697" x2="590.856" y2="112.862" stroke="black"/>
<line x1="647.332" y1="145.907" x2="590.46" y2="113.072" stroke="black"/>
<line x1="647.832" y1="145.907" x2="590.96" y2="178.741" stroke="black"/>
<line x1="534.484" y1="145.697" x2="591.356" y2="178.532" stroke="black"/>
<line x1="588.141" y1="248.009" x2="531.269" y2="215.174" stroke="black"/>
<line x1="531.649" y1="149.742" x2="531.649" y2="215.412" stroke="black"/>
<line x1="531.399" y1="149.309" x2="588.27" y2="182.144" stroke="black"/>
<line x1="587.891" y1="247.576" x2="587.891" y2="181.906" stroke="black"/>
<line x1="594.26" y1="248.561" x2="594.26" y2="182.891" stroke="black"/>
<line x1="651.115" y1="150.503" x2="594.244" y2="183.338" stroke="black"/>
<line x1="651.365" y1="150.07" x2="651.365" y2="215.74" stroke="black"/>
<line x1="594.51" y1="248.128" x2="651.382" y2="215.293" stroke="black"/>
<line x1="856.344" y1="255.059" x2="913.216" y2="222.224" stroke="black"/>
<line x1="969.692" y1="255.268" x2="912.82" y2="222.433" stroke="black"/>
<line x1="970.192" y1="255.268" x2="913.32" y2="288.103" stroke="black"/>
<line x1="856.844" y1="255.059" x2="913.716" y2="287.894" stroke="black"/>
<line x1="910.501" y1="357.37" x2="853.63" y2="324.535" stroke="black"/>
<line x1="854.009" y1="259.104" x2="854.009" y2="324.773" stroke="black"/>
<line x1="853.759" y1="258.671" x2="910.63" y2="291.505" stroke="black"/>
<line x1="910.251" y1="356.937" x2="910.251" y2="291.267" stroke="black"/>
<line x1="916.62" y1="357.922" x2="916.62" y2="292.252" stroke="black"/>
<line x1="973.475" y1="259.865" x2="916.604" y2="292.7" stroke="black"/>
<line x1="973.725" y1="259.432" x2="973.725" y2="325.101" stroke="black"/>
<line x1="916.87" y1="357.489" x2="973.742" y2="324.654" stroke="black"/>
<line x1="795.271" y1="365.384" x2="852.143" y2="332.549" stroke="black"/>
<line x1="908.619" y1="365.593" x2="851.747" y2="332.758" stroke="black"/>
<line x1="909.119" y1="365.593" x2="852.247" y2="398.428" stroke="black"/>
<line x1="795.771" y1="365.384" x2="852.643" y2="398.219" stroke="black"/>
<line x1="849.428" y1="467.695" x2="792.557" y2="434.86" stroke="black"/>
<line x1="792.936" y1="369.429" x2="792.936" y2="435.098" stroke="black"/>
<line x1="792.686" y1="368.996" x2="849.557" y2="401.831" stroke="black"/>
<line x1="849.178" y1="467.262" x2="849.178" y2="401.592" stroke="black"/>
<line x1="855.548" y1="468.247" x2="855.548" y2="402.578" stroke="black"/>
<line x1="912.403" y1="370.19" x2="855.531" y2="403.025" stroke="black"/>
<line x1="912.653" y1="369.757" x2="912.653" y2="435.427" stroke="black"/>
<line x1="855.798" y1="467.814" x2="912.669" y2="434.979" stroke="black"/>
<line x1="922.984" y1="366.697" x2="979.856" y2="333.862" stroke="black"/>
<line x1="1036.33" y1="366.907" x2="979.46" y2="334.072" stroke="black"/>
<line x1="1036.83" y1="366.907" x2="979.96" y2="399.742" stroke="black"/>
<line x1="923.484" y1="366.697" x2="980.356" y2="399.532" stroke="black"/>
<line x1="977.141" y1="469.009" x2="920.27" y2="436.174" stroke="black"/>
<line x1="920.649" y1="370.742" x2="920.649" y2="436.412" stroke="black"/>
<line x1="920.399" y1="370.309" x2="977.27" y2="403.144" stroke="black"/>
<line x1="976.891" y1="468.576" x2="976.891" y2="402.906" stroke="black"/>
<line x1="983.26" y1="469.561" x2="983.26" y2="403.891" stroke="black"/>
<line x1="1040.12" y1="371.503" x2="983.244" y2="404.338" stroke="black"/>
<line x1="1040.37" y1="371.07" x2="1040.37" y2="436.74" stroke="black"/>
<line x1="983.51" y1="469.128" x2="1040.38" y2="436.293" stroke="black"/>
<line x1="662.344" y1="145.059" x2="719.216" y2="112.224" stroke="black"/>
<line x1="775.692" y1="145.268" x2="718.82" y2="112.433" stroke="black"/>
<line x1="776.192" y1="145.268" x2="719.32" y2="178.103" stroke="black"/>
<line x1="662.844" y1="145.059" x2="719.716" y2="177.893" stroke="black"/>
<line x1="716.501" y1="247.37" x2="659.63" y2="214.535" stroke="black"/>
<line x1="660.009" y1="149.103" x2="660.009" y2="214.773" stroke="black"/>
<line x1="659.759" y1="148.67" x2="716.63" y2="181.505" stroke="black"/>
<line x1="716.251" y1="246.937" x2="716.251" y2="181.267" stroke="black"/>
<line x1="722.62" y1="247.922" x2="722.62" y2="182.252" stroke="black"/>
<line x1="779.476" y1="149.865" x2="722.604" y2="182.7" stroke="black"/>
<line x1="779.726" y1="149.432" x2="779.726" y2="215.102" stroke="black"/>
<line x1="722.87" y1="247.489" x2="779.742" y2="214.654" stroke="black"/>
<line x1="601.271" y1="255.384" x2="658.143" y2="222.549" stroke="black"/>
<line x1="714.619" y1="255.593" x2="657.747" y2="222.758" stroke="black"/>
<line x1="715.119" y1="255.593" x2="658.247" y2="288.428" stroke="black"/>
<line x1="601.771" y1="255.384" x2="658.643" y2="288.219" stroke="black"/>
<line x1="655.428" y1="357.695" x2="598.557" y2="324.86" stroke="black"/>
<line x1="598.936" y1="259.429" x2="598.936" y2="325.098" stroke="black"/>
<line x1="598.686" y1="258.996" x2="655.557" y2="291.831" stroke="black"/>
<line x1="655.178" y1="357.262" x2="655.178" y2="291.592" stroke="black"/>
<line x1="661.547" y1="358.247" x2="661.547" y2="292.578" stroke="black"/>
<line x1="718.403" y1="260.19" x2="661.531" y2="293.025" stroke="black"/>
<line x1="718.653" y1="259.757" x2="718.653" y2="325.427" stroke="black"/>
<line x1="661.797" y1="357.814" x2="718.669" y2="324.979" stroke="black"/>
<line x1="728.984" y1="256.697" x2="785.856" y2="223.862" stroke="black"/>
<line x1="842.332" y1="256.907" x2="785.46" y2="224.072" stroke="black"/>
<line x1="842.832" y1="256.907" x2="785.96" y2="289.742" stroke="black"/>
<line x1="729.484" y1="256.697" x2="786.356" y2="289.532" stroke="black"/>
<line x1="783.141" y1="359.009" x2="726.269" y2="326.174" stroke="black"/>
<line x1="726.649" y1="260.742" x2="726.649" y2="326.412" stroke="black"/>
<line x1="726.399" y1="260.309" x2="783.27" y2="293.144" stroke="black"/>
<line x1="782.891" y1="358.576" x2="782.891" y2="292.906" stroke="black"/>
<line x1="789.26" y1="359.561" x2="789.26" y2="293.891" stroke="black"/>
<line x1="846.115" y1="261.503" x2="789.244" y2="294.338" stroke="black"/>
<line x1="846.365" y1="261.07" x2="846.365" y2="326.74" stroke="black"/>
<line x1="789.51" y1="359.128" x2="846.382" y2="326.293" stroke="black"/>
<line x1="852.344" y1="34.0586" x2="909.216" y2="1.22368" stroke="black"/>
<line x1="965.692" y1="34.2679" x2="908.82" y2="1.43296" stroke="black"/>
<line x1="966.192" y1="34.2679" x2="909.32" y2="67.1027" stroke="black"/>
<line x1="852.844" y1="34.0586" x2="909.716" y2="66.8935" stroke="black"/>
<line x1="906.501" y1="136.37" x2="849.63" y2="103.535" stroke="black"/>
<line x1="850.009" y1="38.1034" x2="850.009" y2="103.773" stroke="black"/>
<line x1="849.759" y1="37.6704" x2="906.63" y2="70.5053" stroke="black"/>
<line x1="906.251" y1="135.937" x2="906.251" y2="70.2672" stroke="black"/>
<line x1="912.62" y1="136.922" x2="912.62" y2="71.2523" stroke="black"/>
<line x1="969.475" y1="38.8648" x2="912.604" y2="71.6997" stroke="black"/>
<line x1="969.725" y1="38.4318" x2="969.725" y2="104.102" stroke="black"/>
<line x1="912.87" y1="136.489" x2="969.742" y2="103.654" stroke="black"/>
<line x1="791.271" y1="144.384" x2="848.143" y2="111.549" stroke="black"/>
<line x1="904.619" y1="144.593" x2="847.747" y2="111.758" stroke="black"/>
<line x1="905.119" y1="144.593" x2="848.247" y2="177.428" stroke="black"/>
<line x1="791.771" y1="144.384" x2="848.643" y2="177.219" stroke="black"/>
<line x1="845.428" y1="246.695" x2="788.557" y2="213.86" stroke="black"/>
<line x1="788.936" y1="148.429" x2="788.936" y2="214.098" stroke="black"/>
<line x1="788.686" y1="147.996" x2="845.557" y2="180.83" stroke="black"/>
<line x1="845.178" y1="246.262" x2="845.178" y2="180.592" stroke="black"/>
<line x1="851.548" y1="247.247" x2="851.548" y2="181.578" stroke="black"/>
<line x1="908.403" y1="149.19" x2="851.531" y2="182.025" stroke="black"/>
<line x1="908.653" y1="148.757" x2="908.653" y2="214.427" stroke="black"/>
<line x1="851.798" y1="246.814" x2="908.669" y2="213.979" stroke="black"/>
<line x1="918.984" y1="145.697" x2="975.856" y2="112.862" stroke="black"/>
<line x1="1032.33" y1="145.907" x2="975.46" y2="113.072" stroke="black"/>
<line x1="1032.83" y1="145.907" x2="975.96" y2="178.741" stroke="black"/>
<line x1="919.484" y1="145.697" x2="976.356" y2="178.532" stroke="black"/>
<line x1="973.141" y1="248.009" x2="916.27" y2="215.174" stroke="black"/>
<line x1="916.649" y1="149.742" x2="916.649" y2="215.412" stroke="black"/>
<line x1="916.399" y1="149.309" x2="973.27" y2="182.144" stroke="black"/>
<line x1="972.891" y1="247.576" x2="972.891" y2="181.906" stroke="black"/>
<line x1="979.26" y1="248.561" x2="979.26" y2="182.891" stroke="black"/>
<line x1="1036.12" y1="150.503" x2="979.244" y2="183.338" stroke="black"/>
<line x1="1036.37" y1="150.07" x2="1036.37" y2="215.74" stroke="black"/>
<line x1="979.51" y1="248.128" x2="1036.38" y2="215.293" stroke="black"/>
<line x1="861.344" y1="474.059" x2="918.216" y2="441.224" stroke="black"/>
<line x1="974.692" y1="474.268" x2="917.82" y2="441.433" stroke="black"/>
<line x1="975.192" y1="474.268" x2="918.32" y2="507.103" stroke="black"/>
<line x1="861.844" y1="474.059" x2="918.716" y2="506.894" stroke="black"/>
<line x1="915.501" y1="576.37" x2="858.63" y2="543.535" stroke="black"/>
<line x1="859.009" y1="478.104" x2="859.009" y2="543.773" stroke="black"/>
<line x1="858.759" y1="477.671" x2="915.63" y2="510.505" stroke="black"/>
<line x1="915.251" y1="575.937" x2="915.251" y2="510.267" stroke="black"/>
<line x1="921.62" y1="576.922" x2="921.62" y2="511.252" stroke="black"/>
<line x1="978.475" y1="478.865" x2="921.604" y2="511.7" stroke="black"/>
<line x1="978.725" y1="478.432" x2="978.725" y2="544.101" stroke="black"/>
<line x1="921.87" y1="576.489" x2="978.742" y2="543.654" stroke="black"/>
<line x1="800.271" y1="584.384" x2="857.143" y2="551.549" stroke="black"/>
<line x1="913.619" y1="584.593" x2="856.747" y2="551.758" stroke="black"/>
<line x1="914.119" y1="584.593" x2="857.247" y2="617.428" stroke="black"/>
<line x1="800.771" y1="584.384" x2="857.643" y2="617.219" stroke="black"/>
<line x1="854.428" y1="686.695" x2="797.557" y2="653.86" stroke="black"/>
<line x1="797.936" y1="588.429" x2="797.936" y2="654.098" stroke="black"/>
<line x1="797.686" y1="587.996" x2="854.557" y2="620.831" stroke="black"/>
<line x1="854.178" y1="686.262" x2="854.178" y2="620.592" stroke="black"/>
<line x1="860.548" y1="687.247" x2="860.548" y2="621.578" stroke="black"/>
<line x1="917.403" y1="589.19" x2="860.531" y2="622.025" stroke="black"/>
<line x1="917.653" y1="588.757" x2="917.653" y2="654.427" stroke="black"/>
<line x1="860.798" y1="686.814" x2="917.669" y2="653.979" stroke="black"/>
<line x1="927.984" y1="585.697" x2="984.856" y2="552.862" stroke="black"/>
<line x1="1041.33" y1="585.907" x2="984.46" y2="553.072" stroke="black"/>
<line x1="1041.83" y1="585.907" x2="984.96" y2="618.742" stroke="black"/>
<line x1="928.484" y1="585.697" x2="985.356" y2="618.532" stroke="black"/>
<line x1="982.141" y1="688.009" x2="925.27" y2="655.174" stroke="black"/>
<line x1="925.649" y1="589.742" x2="925.649" y2="655.412" stroke="black"/>
<line x1="925.399" y1="589.309" x2="982.27" y2="622.144" stroke="black"/>
<line x1="981.891" y1="687.576" x2="981.891" y2="621.906" stroke="black"/>
<line x1="988.26" y1="688.561" x2="988.26" y2="622.891" stroke="black"/>
<line x1="1045.12" y1="590.503" x2="988.244" y2="623.338" stroke="black"/>
<line x1="1045.37" y1="590.07" x2="1045.37" y2="655.74" stroke="black"/>
<line x1="988.51" y1="688.128" x2="1045.38" y2="655.293" stroke="black"/>
</svg>
