<svg width="62" height="62" viewBox="0 0 62 62" fill="none" xmlns="http://www.w3.org/2000/svg">
<circle cx="31" cy="31" r="31" fill="black"/>
<path d="M38.1108 23.8892C36.2256 21.9991 33.6696 20.931 31 20.9175C28.2406 20.9175 25.6935 22.0319 23.8892 23.8892C21.9992 25.7745 20.931 28.3305 20.9176 31C20.931 33.6695 21.9992 36.2255 23.8892 38.1108C25.7745 40.0008 28.3305 41.069 31 41.0825C33.7595 41.0825 36.3066 39.9681 38.1108 38.1108C40.0009 36.2255 41.0691 33.6695 41.0825 31C41.0825 28.2406 39.9681 25.6934 38.1108 23.8892ZM36.2005 36.2004C34.8738 37.5271 33.0165 38.323 31 38.323C29.0537 38.333 27.1831 37.5695 25.7996 36.2004C24.473 34.8738 23.677 33.0165 23.677 31C23.677 28.9835 24.473 27.1262 25.7996 25.7995C27.1263 24.4729 28.9836 23.6769 31 23.6769C33.0165 23.6769 34.8738 24.4729 36.2005 25.7995C37.5271 27.1262 38.3231 28.9835 38.3231 31C38.3231 33.0165 37.5271 34.8738 36.2005 36.2004ZM49.6792 29.6203H45.5931C45.2292 29.6267 44.882 29.7741 44.6246 30.0315C44.3672 30.2888 44.2198 30.6361 44.2134 31C44.2134 31.7429 44.8502 32.3797 45.5931 32.3797H49.6792C50.0431 32.3733 50.3903 32.2259 50.6477 31.9685C50.9051 31.7111 51.0525 31.3639 51.0589 31C51.0525 30.6361 50.9051 30.2888 50.6477 30.0315C50.3903 29.7741 50.0431 29.6267 49.6792 29.6203ZM31 44.2133C30.6361 44.2197 30.2889 44.3671 30.0315 44.6245C29.7741 44.8819 29.6267 45.2291 29.6203 45.593V49.6791C29.6203 50.422 30.2571 51.0588 31 51.0588C31.364 51.0524 31.7112 50.905 31.9686 50.6476C32.226 50.3903 32.3734 50.043 32.3798 49.6791V45.593C32.3734 45.2291 32.226 44.8819 31.9686 44.6245C31.7112 44.3671 31.364 44.2197 31 44.2133ZM45.1686 43.2582L42.25 40.3395C41.7724 39.8089 40.8703 39.8089 40.3396 40.3395C40.2135 40.4646 40.1133 40.6134 40.045 40.7773C39.9767 40.9413 39.9415 41.1171 39.9415 41.2947C39.9415 41.4723 39.9767 41.6482 40.045 41.8121C40.1133 41.9761 40.2135 42.1249 40.3396 42.2499L43.2582 45.1685C43.7889 45.6992 44.6379 45.6992 45.1686 45.1685C45.2947 45.0435 45.3949 44.8947 45.4632 44.7308C45.5315 44.5668 45.5667 44.391 45.5667 44.2133C45.5667 44.0357 45.5315 43.8599 45.4632 43.6959C45.3949 43.532 45.2947 43.3832 45.1686 43.2582ZM31 10.9412C30.6361 10.9476 30.2889 11.095 30.0315 11.3523C29.7741 11.6097 29.6267 11.9569 29.6203 12.3209V16.4069C29.6203 17.1498 30.2571 17.7866 31 17.7866C31.364 17.7802 31.7112 17.6328 31.9686 17.3755C32.226 17.1181 32.3734 16.7708 32.3798 16.4069V12.3209C32.3734 11.9569 32.226 11.6097 31.9686 11.3523C31.7112 11.095 31.364 10.9476 31 10.9412ZM45.2216 16.8315C45.0966 16.7053 44.9478 16.6052 44.7839 16.5368C44.6199 16.4685 44.4441 16.4333 44.2665 16.4333C44.0888 16.4333 43.913 16.4685 43.749 16.5368C43.5851 16.6052 43.4363 16.7053 43.3113 16.8315L40.3927 19.7501C40.2665 19.8751 40.1664 20.0239 40.0981 20.1878C40.0297 20.3518 39.9945 20.5276 39.9945 20.7052C39.9945 20.8829 40.0297 21.0587 40.0981 21.2227C40.1664 21.3866 40.2665 21.5354 40.3927 21.6604C40.8703 22.1911 41.7724 22.1911 42.303 21.6604L45.2216 18.7418C45.3478 18.6168 45.4479 18.468 45.5163 18.304C45.5846 18.1401 45.6198 17.9642 45.6198 17.7866C45.6198 17.609 45.5846 17.4332 45.5163 17.2692C45.4479 17.1053 45.3478 16.9565 45.2216 16.8315ZM16.407 29.6203H12.3209C11.957 29.6267 11.6098 29.7741 11.3524 30.0315C11.095 30.2888 10.9476 30.6361 10.9412 31C10.9412 31.7429 11.5249 32.3797 12.3209 32.3797H16.407C16.7709 32.3733 17.1181 32.2259 17.3755 31.9685C17.6329 31.7111 17.7803 31.3639 17.7867 31C17.7803 30.6361 17.6329 30.2888 17.3755 30.0315C17.1181 29.7741 16.7709 29.6267 16.407 29.6203ZM21.6074 40.3395C21.1298 39.8089 20.2277 39.8089 19.6971 40.3395L16.7784 43.2582C16.6523 43.3832 16.5522 43.532 16.4838 43.6959C16.4155 43.8599 16.3803 44.0357 16.3803 44.2133C16.3803 44.391 16.4155 44.5668 16.4838 44.7308C16.5522 44.8947 16.6523 45.0435 16.7784 45.1685C17.3091 45.6992 18.1582 45.6992 18.6888 45.1685L21.6074 42.2499C21.7336 42.1249 21.8337 41.9761 21.902 41.8121C21.9704 41.6482 22.0056 41.4723 22.0056 41.2947C22.0056 41.1171 21.9704 40.9413 21.902 40.7773C21.8337 40.6134 21.7336 40.4646 21.6074 40.3395ZM21.6074 19.7501L18.6888 16.8315C18.5638 16.7053 18.415 16.6052 18.251 16.5368C18.0871 16.4685 17.9112 16.4333 17.7336 16.4333C17.556 16.4333 17.3802 16.4685 17.2162 16.5368C17.0523 16.6052 16.9035 16.7053 16.7784 16.8315C16.6523 16.9565 16.5522 17.1053 16.4838 17.2692C16.4155 17.4332 16.3803 17.609 16.3803 17.7866C16.3803 17.9642 16.4155 18.1401 16.4838 18.304C16.5522 18.468 16.6523 18.6168 16.7784 18.7418L19.6971 21.6604C20.2277 22.1911 21.0768 22.1911 21.6074 21.6604C21.7336 21.5354 21.8337 21.3866 21.902 21.2227C21.9704 21.0587 22.0056 20.8829 22.0056 20.7052C22.0056 20.5276 21.9704 20.3518 21.902 20.1878C21.8337 20.0239 21.7336 19.8751 21.6074 19.7501Z" fill="#FFD700"/>
</svg>
